<svg xmlns="http://www.w3.org/2000/svg" width="472.125" height="569.363" viewBox="0 0 472.125 569.363">
  <g id="Group_70" data-name="Group 70" transform="translate(0 -208)" opacity="0.162" style="mix-blend-mode: overlay;isolation: isolate">
    <g id="Group_69" data-name="Group 69" transform="translate(0 148.233)" style="mix-blend-mode: screen;isolation: isolate">
      <path id="Path_60" data-name="Path 60" d="M0,59.767C33.1,63.8,94.963,100.878,118.459,126.31c31.658,34.238,44.146,85.967,31.354,132.427-14.2,51.441-92.268,133.027-72.378,189.693,23.5,67.079,97.439,67.943,153.01,65.391,40.8-1.893,82.028-6.666,122.264,1.07,26.57,5.1,49.459,15.885,68.894,32.8a161.037,161.037,0,0,1,27.937,32.058c6.871,10.247,20,31.564,22.585,49.383H0Z" style="mix-blend-mode: color-dodge;isolation: isolate"/>
      <path id="Path_62" data-name="Path 62" d="M207.5,469.034c7.387-1.153,15.465,2.174,16.966,10.418,1.059,5.818-.756,12.065-5.566,15.764-7.041,5.413-17.964,3.445-22.472-4.246a15.088,15.088,0,0,1-.536-13.983C198.084,472.484,202.642,469.791,207.5,469.034Z" style="mix-blend-mode: color-dodge;isolation: isolate"/>
    </g>
  </g>
</svg>
