<svg xmlns="http://www.w3.org/2000/svg" xmlns:xlink="http://www.w3.org/1999/xlink" width="284.161" height="61.658" viewBox="0 0 284.161 61.658">
  <defs>
    <clipPath id="clip-path">
      <path id="Clip_4" data-name="Clip 4" d="M0,0H35.648V60.521H0Z" transform="translate(0.513 0.342)" fill="#fff"/>
    </clipPath>
    <clipPath id="clip-path-2">
      <path id="Clip_9" data-name="Clip 9" d="M0,0H45.09V51.95H0Z" transform="translate(0 0.05)" fill="#fff"/>
    </clipPath>
  </defs>
  <g id="Group_66" data-name="Group 66" transform="translate(-370 -76)" style="isolation: isolate">
    <path id="Fill_1" data-name="Fill 1" d="M11.568,42.238c-.436,0-.892-.008-1.355-.025a12.53,12.53,0,0,1-6.654-1.888,7.682,7.682,0,0,1-3.276-4.8,11.176,11.176,0,0,1,.707-7.109,9.517,9.517,0,0,1,5.1-4.936A66.444,66.444,0,0,1,16.33,20.62c1.283-.285,2.607-.58,3.9-.9a21.879,21.879,0,0,1,2.75-.426c.518-.059,1.053-.12,1.644-.2-.082-1.349-.143-2.684-.2-3.975-.135-2.931-.262-5.7-.607-8.476a5.688,5.688,0,0,0-5.663-5.217,6.5,6.5,0,0,0-3.14.834,3.882,3.882,0,0,0-1.368,3.011,8.209,8.209,0,0,0,.6,2.573A15.077,15.077,0,0,1,14.7,9.353a6.543,6.543,0,0,1-2.757,7.2,6.46,6.46,0,0,1-3.485,1.033A6.623,6.623,0,0,1,2.25,8.817a10.058,10.058,0,0,1,2.9-4.485A13.683,13.683,0,0,1,9.777,1.724,30.8,30.8,0,0,1,19.992,0a35.6,35.6,0,0,1,8.232,1,11.375,11.375,0,0,1,6.629,4.013,13.71,13.71,0,0,1,2.511,7.841c.18,3.745.212,7.561.243,11.251.014,1.631.028,3.317.055,4.975.009.553.012,1.114.015,1.656.006,1.095.012,2.227.067,3.338.223,4.514.644,4.958,4.995,5.278a4.973,4.973,0,0,1-2.676,2.074,12.032,12.032,0,0,1-4.2.677,18.692,18.692,0,0,1-6.144-1.081,13.283,13.283,0,0,1-5.128-3.148C21.31,40.852,17.171,42.238,11.568,42.238ZM24.4,20.981h0c-3.092.071-6.331.443-9.078,2.665a7.9,7.9,0,0,0-2.749,4.115,10.947,10.947,0,0,0-.059,4.911A7.049,7.049,0,0,0,18,38.5a5.5,5.5,0,0,0,1.368.168c2.305,0,4.919-1.4,4.985-3.418.109-3.329.087-6.588.064-10.038-.009-1.382-.019-2.811-.019-4.23Z" transform="translate(509.858 94.902)" fill="#fff"/>
    <g id="Group_5" data-name="Group 5" transform="translate(618 75.658)">
      <g id="Group_5-2" data-name="Group 5" clip-path="url(#clip-path)">
        <path id="Fill_3" data-name="Fill 3" d="M18.752,58.853a21.612,21.612,0,0,1,2.992.042c.434.063.8.584,1.2.9-.361.243-.721.7-1.084.7-6.971.042-13.943.031-21.263.031.924-2.788,3.26-.971,4.562-2.124V21.388A33.612,33.612,0,0,1,1.4,21.343C.9,21.286.464,20.728,0,20.4c.443-.252.872-.683,1.334-.721,1.223-.1,2.46-.035,3.609-.035.579-3.153.8-6.175,1.709-8.973C9.269,2.634,17.035-1.278,26.375.372c3.608.637,6.714,2,8.494,5.405a5.077,5.077,0,0,1-.17,5.664c-1.166,1.612-2.84,1.865-4.682,1.62a3.732,3.732,0,0,1-3.347-3.21c-.307-1.457-.27-2.986-.553-4.45-.324-1.672-.859-3.327-2.97-3.481-2.139-.156-2.98,1.405-3.338,3.061a54.007,54.007,0,0,0-1.042,7.395c-.171,2.3-.036,4.626-.036,7.211H29.939l.314.906a5.743,5.743,0,0,1-1.922.858c-3.141.09-6.285.04-9.579.04Z" transform="translate(0.513 0.342)" fill="#fff"/>
      </g>
    </g>
    <path id="Fill_6" data-name="Fill 6" d="M21.994,42.615A24.968,24.968,0,0,1,8.048,38.566a16.5,16.5,0,0,1-5.505-6.22A24.334,24.334,0,0,1,0,21.984a28.676,28.676,0,0,1,1.877-10.5,16.691,16.691,0,0,1,7.127-8.4A21.553,21.553,0,0,1,20.127,0c.43,0,.865.013,1.293.039a22.023,22.023,0,0,1,7.245,1.627,17.617,17.617,0,0,1,5.648,3.775,18.226,18.226,0,0,1,3.831,5.713A23.91,23.91,0,0,1,39.939,18.6c.093,1.093.173,2.158.265,3.392.045.6.092,1.239.145,1.918h-26.6a16.515,16.515,0,0,0,1.411,8.647,12.015,12.015,0,0,0,5.117,5.905A11.769,11.769,0,0,0,25.6,39.629a17.871,17.871,0,0,0,6.587-1.336,19.133,19.133,0,0,0,5.974-3.8l.454.107.257.06c-.072.211-.128.442-.182.665a2.975,2.975,0,0,1-.539,1.318,18.2,18.2,0,0,1-10.686,5.5A32.751,32.751,0,0,1,21.994,42.615ZM20.528,1.741a4.841,4.841,0,0,0-4.48,3.305c-2.061,4.806-2.886,10.237-2.6,17.09H27.938a77.291,77.291,0,0,0-.576-8.6,31.879,31.879,0,0,0-2.144-8.158c-1.019-2.414-2.527-3.6-4.61-3.634Z" transform="translate(463.326 94.805)" fill="#fff"/>
    <g id="Group_10" data-name="Group 10" transform="translate(370 85.658)">
      <g id="Group_10-2" data-name="Group 10" clip-path="url(#clip-path-2)">
        <path id="Fill_8" data-name="Fill 8" d="M45.09,35.182C43.584,46.753,36.36,52.9,24.807,51.831a46.253,46.253,0,0,1-12.964-3.064C5.932,46.373,2.553,41.419,1.11,35.22a39.908,39.908,0,0,1-.033-18.556C3.294,7.438,10.591,1.469,20.2.263A27.66,27.66,0,0,1,37.544,3.4C40.453,5,41.077,4.705,42.71,1.966a4.451,4.451,0,0,1,.973-.875c.231.386.661.77.664,1.157q.062,8.743-.008,17.486c0,.352-.48.7-.736,1.051-.3-.4-.829-.772-.871-1.195a23.361,23.361,0,0,0-3.6-10.513A15.364,15.364,0,0,0,25.283,1.682c-4.515.025-7.077,2.985-8.414,6.692a35.431,35.431,0,0,0-2.236,10.914,142.633,142.633,0,0,0,.775,19.642c.611,5.351,3.1,9.936,9.063,11.242A15.408,15.408,0,0,0,40.33,43.546c1.319-2.154,1.963-4.718,2.966-7.072a13.73,13.73,0,0,1,1.113-1.812Z" transform="translate(0 0.05)" fill="#fff"/>
      </g>
    </g>
    <path id="Fill_11" data-name="Fill 11" d="M4.732,3.176C3.369,2.2,1.182,3.76,0,1.255H18.1V9.37l.48.1c.352-.783.7-1.569,1.056-2.349A11.848,11.848,0,0,1,34.624.724a6.349,6.349,0,0,1,4.188,6.658A6.834,6.834,0,0,1,33.3,13.364a6.13,6.13,0,0,1-6.388-3.8A19.492,19.492,0,0,0,26,7.252c-.5-.8-1.191-1.971-1.875-2.025s-1.776.92-2.147,1.7a36.844,36.844,0,0,0-2.6,6.726c-2.187,8.685-.831,17.528-1.239,26.466a34.269,34.269,0,0,1,3.483.226c.337.055.595.6.89.921-.292.224-.583.641-.876.642-7.045.037-14.09.029-21.5.029,1.016-2.753,3.339-.959,4.6-2.086Z" transform="translate(420.934 94.579)" fill="#fff"/>
    <path id="Fill_13" data-name="Fill 13" d="M31.322,51.987c-.535.572-.967,1.345-1.623,1.685a17.489,17.489,0,0,1-17.636-.44c-3.674-2.107-4.9-5.884-5.043-9.807C6.727,35.27,6.752,27.1,6.65,18.941c-.012-.974,0-1.948,0-2.755C4.427,15.047,1.712,16.793,0,14.267,10.867,15.569,16.532,9.983,19.052,0L19.8.5V14.013c3.083,0,5.8-.045,8.516.036a5.747,5.747,0,0,1,1.814.732c-.634.328-1.257.912-1.9.938-2.643.108-5.293.045-8.253.045,0,1.871,0,3.512,0,5.153.013,6.917.018,13.833.051,20.75a22.784,22.784,0,0,0,.225,3.486c.905,5.615,3.715,7.57,9.3,6.547.466-.086.942-.121,1.412-.179l.363.466" transform="translate(554.704 81.627)" fill="#fff"/>
    <path id="Fill_15" data-name="Fill 15" d="M17.707,0V38.574l4.509,1.083q-.108.525-.217,1.049H16.6c-4.915,0-9.831.024-14.745-.031A6.136,6.136,0,0,1,0,40.011a9.9,9.9,0,0,1,1.9-.961,12.3,12.3,0,0,1,2.354-.16V1.868c-1.074-.239-2.155-.451-3.21-.756C.926,1.078.964.511.911,0Z" transform="translate(590.882 95.822)" fill="#fff"/>
    <path id="Fill_17" data-name="Fill 17" d="M15.492,7.713a7.58,7.58,0,0,1-7.669,7.764A7.8,7.8,0,0,1,0,7.775,7.833,7.833,0,0,1,7.759,0a7.592,7.592,0,0,1,7.733,7.713" transform="translate(593.803 76.061)" fill="#fff"/>
    <path id="Fill_19" data-name="Fill 19" d="M.18,13.173a2.455,2.455,0,0,1-.158-1.005c.622-2.318,1.19-4.66,2-6.912A11.209,11.209,0,0,1,4.192,1.417a4.459,4.459,0,0,1,6.477-.045,4.659,4.659,0,0,1-.005,6.345A9.044,9.044,0,0,1,8.045,9.569C5.549,10.792,3,11.894.18,13.173" transform="translate(481.883 78.253)" fill="#fff"/>
  </g>
</svg>
